<?xml version="1.0" standalone="no"?>
<!DOCTYPE svg PUBLIC "-//W3C//DTD SVG 20010904//EN"
 "http://www.w3.org/TR/2001/REC-SVG-20010904/DTD/svg10.dtd">
<svg version="1.0" xmlns="http://www.w3.org/2000/svg"
 width="512.000000pt" height="512.000000pt" viewBox="0 0 512.000000 512.000000"
 preserveAspectRatio="xMidYMid meet">
<metadata>
Created by potrace 1.14, written by Peter Selinger 2001-2017
</metadata>
<g transform="translate(0.000000,512.000000) scale(0.100000,-0.100000)"
fill="#000000" stroke="none">
<path d="M0 2560 l0 -2560 2560 0 2560 0 0 2044 0 2044 -22 -5 -23 -6 23 25
c20 22 23 34 20 96 l-3 70 -120 -114 c-72 -68 -128 -113 -140 -113 -14 0 18
36 110 123 82 79 135 122 145 119 12 -4 12 -3 1 5 -9 7 -10 12 -2 16 8 5 11
127 11 412 l0 404 -2560 0 -2560 0 0 -2560z m1490 1655 c14 -17 5 -36 -15 -28
-16 6 -21 43 -6 43 5 0 14 -7 21 -15z m1202 -60 c0 -5 -5 -11 -11 -13 -6 -2
-11 4 -11 13 0 9 5 15 11 13 6 -2 11 -8 11 -13z m-725 -51 c-9 -9 -28 6 -21
18 4 6 10 6 17 -1 6 -6 8 -13 4 -17z m1079 -83 c-4 -5 -13 -8 -22 -4 -11 4
-12 8 -3 20 14 16 36 2 25 -16z m-1 -851 l0 -495 -492 -3 -493 -2 0 500 0 500
493 -2 492 -3 0 -495z m1200 200 c0 -8 -8 -16 -17 -18 -13 -2 -18 3 -18 18 0
15 5 20 18 18 9 -2 17 -10 17 -18z m-65 -164 c0 -2 -7 -7 -16 -10 -8 -3 -12
-2 -9 4 6 10 25 14 25 6z m-360 -140 c-6 -6 -16 -3 -30 9 -15 14 -17 20 -8 26
17 11 52 -21 38 -35z m-3424 -17 c10 -17 -13 -36 -27 -22 -12 12 -4 33 11 33
5 0 12 -5 16 -11z m1429 -504 l0 -60 -227 -3 -228 -2 0 -240 0 -240 59 0 c45
0 64 -5 82 -21 l24 -20 -25 15 c-18 11 -69 17 -172 22 -134 6 -148 5 -154 -10
-4 -11 2 -29 15 -47 22 -29 20 -55 -3 -46 -15 6 -9 -312 8 -332 9 -11 8 -13
-4 -9 -19 6 -27 202 -29 690 -1 295 1 339 15 352 14 14 54 16 327 14 l312 -3
0 -60z m631 39 c69 -51 69 -50 72 -330 l3 -254 -68 0 c-37 0 -112 -3 -165 -7
-77 -5 -98 -9 -101 -22 -3 -10 -5 -8 -6 7 -1 21 3 22 69 22 l70 0 0 240 0 240
-130 0 -130 0 0 -264 0 -263 92 -7 c50 -3 126 -6 170 -6 43 0 78 -4 78 -9 0
-5 -14 -32 -31 -60 l-32 -51 -193 0 -193 0 -3 53 -3 52 -40 0 -40 0 0 -153 c0
-84 -4 -152 -9 -152 -5 0 -7 92 -3 227 4 124 7 340 7 479 0 219 2 255 16 269
14 14 48 16 279 13 248 -3 265 -4 291 -24z m700 0 c64 -47 69 -62 72 -222 3
-137 1 -150 -20 -191 -38 -74 -72 -85 -270 -89 l-168 -4 0 -73 0 -74 58 -4
c31 -2 9 -3 -50 -3 -99 1 -108 -1 -132 -23 -16 -15 -26 -35 -26 -53 0 -32 -6
-35 -32 -11 -17 15 -18 40 -18 379 0 321 2 364 16 379 14 14 48 16 279 13 248
-3 265 -4 291 -24z m772 -36 l-3 -63 -227 -3 -228 -2 0 -129 0 -129 173 -4
c192 -3 220 -12 264 -78 20 -28 23 -46 23 -121 0 -104 -5 -125 -28 -107 -17
15 -299 24 -319 11 -8 -6 -10 -56 -6 -186 l6 -177 39 0 c33 0 38 3 38 23 0 12
-9 30 -20 40 -34 29 -21 57 15 31 13 -10 19 -25 18 -50 -1 -47 -12 -56 -59
-52 l-39 3 -3 131 -3 130 -84 0 -84 0 -3 -130 -3 -131 -44 -3 c-28 -2 -47 1
-52 10 -5 7 -9 65 -9 129 0 71 -5 125 -12 142 -12 25 -18 27 -83 29 -67 2 -68
2 -15 5 30 3 69 2 85 -1 l30 -6 4 -82 c1 -46 4 -112 5 -148 l1 -65 40 0 40 0
5 140 c7 167 -1 199 -52 212 -18 5 -94 6 -168 3 l-135 -5 0 -175 0 -175 40 0
40 0 3 114 c2 85 -1 117 -10 123 -9 6 -10 10 -2 16 6 4 14 14 17 22 3 8 5 -52
4 -135 l-2 -150 -44 -3 c-28 -2 -47 1 -52 10 -14 21 -11 342 3 356 8 8 50 12
124 12 65 0 115 4 119 10 3 6 39 10 80 10 l74 0 3 -42 3 -43 44 -3 c28 -2 47
1 52 10 13 20 11 55 -4 70 -11 11 5 12 95 10 l108 -4 0 65 0 65 -167 4 c-190
4 -229 15 -270 77 -21 31 -23 45 -23 180 0 179 14 220 82 251 39 18 67 20 311
20 l268 0 -3 -62z m-2120 -344 c21 -15 22 -21 22 -184 0 -198 -1 -200 -85
-200 l-54 0 -3 53 c-3 46 -6 52 -27 55 -12 2 -34 1 -47 -2 -21 -6 -24 -12 -24
-56 0 -76 -24 -66 -36 15 l-9 65 42 0 43 0 0 65 0 65 -58 0 c-32 0 -63 5 -70
12 -7 7 -12 33 -12 58 0 25 5 51 12 58 19 19 277 16 306 -4z m646 -405 c-90
-144 -135 -208 -103 -148 29 53 193 309 196 305 2 -2 -40 -72 -93 -157z
m-1004 92 c0 -27 2 -61 4 -77 2 -16 1 -21 -1 -11 -4 14 -16 17 -84 17 l-79 0
0 60 0 60 80 0 80 0 0 -49z m1510 9 c28 -28 32 -54 28 -184 -4 -160 -5 -161
-176 -162 l-127 -1 127 6 c166 8 162 4 166 162 4 135 -5 173 -47 188 -17 6
-20 10 -8 10 9 1 26 -8 37 -19z m-1680 -10 c0 -5 -4 -10 -10 -10 -5 0 -10 5
-10 10 0 6 5 10 10 10 6 0 10 -4 10 -10z m2657 -56 l1 -49 -8 43 c-5 23 -12
47 -16 53 -4 7 -1 10 7 7 9 -3 15 -22 16 -54z m-1107 27 c-35 -4 -66 -14 -83
-27 -26 -21 -27 -26 -29 -120 l-2 -99 -4 80 c-2 44 0 99 3 122 7 47 14 50 115
50 l55 0 -55 -6z m1014 -23 c3 -13 6 -80 6 -150 l0 -128 39 0 c22 0 42 5 44
10 3 6 4 5 3 -2 -2 -8 -19 -13 -47 -13 l-44 0 -3 136 -3 135 -84 -4 c-70 -4
-85 -2 -85 10 0 25 11 28 91 28 71 0 77 -2 83 -22z m-1174 8 c0 -3 -4 -8 -10
-11 -5 -3 -10 -1 -10 4 0 6 5 11 10 11 6 0 10 -2 10 -4z m-1020 -16 c0 -5 -4
-10 -10 -10 -5 0 -10 5 -10 10 0 6 5 10 10 10 6 0 10 -4 10 -10z m-104 -55
c-4 -14 -12 -25 -18 -25 -9 0 -9 3 0 12 7 7 12 21 12 32 0 10 3 17 6 13 4 -3
4 -18 0 -32z m55 -68 c-3 -134 3 -140 146 -148 l108 -7 -108 2 c-106 1 -109 2
-133 29 -22 26 -24 37 -24 129 0 56 3 98 6 95 4 -3 6 -48 5 -100z m86 -34 c-2
-27 -3 -5 -3 47 0 52 1 74 3 48 2 -27 2 -69 0 -95z m248 -250 c-24 -22 -35
-23 -166 -23 l-139 0 1 33 c2 30 2 30 6 5 l4 -28 132 0 c188 0 176 -14 179
218 l3 187 3 -185 3 -185 -26 -22z m349 280 c-37 -60 -70 -112 -75 -118 -5 -5
-9 -13 -9 -17 0 -5 81 -8 180 -8 l180 2 0 23 c0 24 -2 24 -97 28 l-98 3 100 0
100 -1 3 -32 3 -33 -190 0 c-137 0 -191 3 -191 12 0 6 22 45 49 87 26 42 60
95 75 119 14 23 28 42 31 42 3 0 -25 -48 -61 -107z m1201 -138 l40 0 0 117 c0
64 3 114 8 111 4 -2 7 -53 7 -112 0 -123 -6 -134 -67 -129 l-38 3 -1 125 0
125 5 -120 6 -120 40 0z m-2219 188 c-11 -20 -15 -23 -16 -10 0 17 21 49 28
42 2 -2 -3 -16 -12 -32z m2671 -115 c-2 -29 -3 -8 -3 47 0 55 1 79 3 53 2 -26
2 -71 0 -100z m-2529 125 c-21 -2 -57 -2 -80 0 -24 2 -7 4 37 4 44 0 63 -2 43
-4z m141 -64 c6 -18 6 -29 0 -29 -5 0 -9 8 -9 17 0 9 -8 25 -17 35 -15 17 -15
18 -1 13 9 -4 21 -20 27 -36z m-212 15 c-3 -3 -12 -4 -19 -1 -8 3 -5 6 6 6 11
1 17 -2 13 -5z m120 -76 c-2 -13 -4 -3 -4 22 0 25 2 35 4 23 2 -13 2 -33 0
-45z m1440 40 c-3 -8 -6 -5 -6 6 -1 11 2 17 5 13 3 -3 4 -12 1 -19z m603 2 c0
-5 -5 -10 -11 -10 -5 0 -7 5 -4 10 3 6 8 10 11 10 2 0 4 -4 4 -10z m-3340 -64
c-13 -13 -35 7 -25 24 5 8 11 8 21 -1 10 -8 12 -15 4 -23z m2497 -36 c14 -11
21 -20 15 -20 -21 0 -52 44 -51 69 l2 26 4 -27 c2 -15 16 -37 30 -48z m-1107
40 c0 -22 -33 -60 -51 -60 -7 0 0 9 15 21 14 11 26 29 26 40 0 10 2 19 5 19 3
0 5 -9 5 -20z m-142 -9 c-20 -4 -56 -4 -80 -1 -35 6 -29 8 37 8 59 0 71 -2 43
-7z m410 2 c-21 -2 -57 -2 -80 0 -24 2 -7 4 37 4 44 0 63 -2 43 -4z m1019 0
c-26 -2 -45 -8 -42 -14 4 -5 1 -9 -4 -9 -6 0 -11 4 -11 9 0 5 -12 12 -27 14
-16 2 8 4 52 4 45 0 59 -2 32 -4z m-1419 -60 c-38 -2 -98 -2 -135 0 -38 2 -7
3 67 3 74 0 105 -1 68 -3z m449 -65 c-2 -13 -4 -5 -4 17 -1 22 1 32 4 23 2
-10 2 -28 0 -40z m-1057 -172 c0 -3 -4 -8 -10 -11 -5 -3 -10 -1 -10 4 0 6 5
11 10 11 6 0 10 -2 10 -4z m-583 -98 c-3 -8 -6 -5 -6 6 -1 11 2 17 5 13 3 -3
4 -12 1 -19z m527 -113 c-4 -8 -11 -15 -16 -15 -6 0 -5 6 2 15 7 8 14 15 16
15 2 0 1 -7 -2 -15z m-212 -47 c-7 -7 -12 -8 -12 -2 0 14 12 26 19 19 2 -3 -1
-11 -7 -17z m-217 -58 c-10 -11 -20 -18 -23 -15 -3 3 3 14 13 25 10 11 20 18
23 15 3 -3 -3 -14 -13 -25z m167 8 c-7 -7 -12 -8 -12 -2 0 14 12 26 19 19 2
-3 -1 -11 -7 -17z m768 -51 c0 -2 -12 -14 -27 -28 l-28 -24 24 28 c23 25 31
32 31 24z m-970 -136 c0 -6 -11 -23 -25 -38 l-26 -28 22 38 c21 37 29 45 29
28z m-179 -354 c-8 -8 -11 -7 -11 4 0 20 13 34 18 19 3 -7 -1 -17 -7 -23z
m3777 -11 c3 -24 0 -27 -20 -24 -26 3 -37 36 -16 49 20 13 33 5 36 -25z
m-3837 -49 c-8 -8 -11 -7 -11 4 0 20 13 34 18 19 3 -7 -1 -17 -7 -23z m89 -51
c0 -3 -4 -8 -10 -11 -5 -3 -10 -1 -10 4 0 6 5 11 10 11 6 0 10 -2 10 -4z m-60
-72 c-9 -22 -13 -25 -20 -14 -6 10 -4 21 7 32 21 24 26 17 13 -18z m4698 -25
c-2 -6 -8 -10 -13 -10 -5 0 -11 4 -13 10 -2 6 4 11 13 11 9 0 15 -5 13 -11z
m-4471 -74 c-4 -8 -11 -15 -17 -15 -7 0 -7 6 0 21 13 23 26 19 17 -6z"/>
<path d="M2157 3512 c-14 -16 -17 -44 -17 -176 l0 -157 154 3 c136 3 156 5
175 22 l22 20 -153 153 c-84 84 -155 153 -159 153 -3 0 -13 -8 -22 -18z m223
-265 c0 -4 -42 -6 -92 -5 l-93 3 -3 79 c-2 44 0 86 3 95 4 11 29 -9 95 -74 50
-49 90 -93 90 -98z"/>
<path d="M2768 3376 c-82 -82 -148 -153 -148 -157 0 -5 10 -15 22 -23 18 -13
53 -16 175 -16 l153 0 0 153 c0 122 -3 157 -16 175 -8 12 -21 21 -27 20 -7 0
-78 -69 -159 -152z m139 -133 c-3 -2 -46 -2 -96 -1 l-92 3 93 93 93 93 3 -92
c1 -50 1 -93 -1 -96z"/>
<path d="M2141 3084 c-19 -24 -21 -40 -21 -148 0 -174 -9 -166 191 -166 l159
0 44 40 43 39 38 -39 39 -40 154 0 c86 0 162 5 173 10 17 10 19 23 19 154 0
169 -5 179 -86 174 -45 -3 -51 -7 -83 -50 -35 -46 -35 -46 -50 -25 -8 12 -25
34 -39 50 l-26 27 -143 0 c-157 0 -156 0 -205 -70 l-18 -25 -17 25 c-40 56
-61 70 -107 70 -36 0 -48 -5 -65 -26z m139 -99 c23 -36 46 -65 50 -65 4 0 27
29 50 65 l43 66 131 -3 130 -3 44 -62 c24 -35 47 -63 50 -63 4 0 26 30 50 65
36 56 46 65 72 65 l31 0 -3 -112 -3 -113 -130 -3 -130 -3 -50 51 c-27 27 -53
50 -59 50 -5 0 -33 -23 -62 -50 l-53 -51 -128 3 -128 3 -3 113 -3 112 29 0
c25 0 36 -10 72 -65z"/>
<path d="M2770 2350 l0 -130 130 0 130 0 0 130 0 130 -130 0 -130 0 0 -130z"/>
</g>
</svg>
